<svg width="24" height="24" viewBox="0 0 24 24" fill="none" xmlns="http://www.w3.org/2000/svg">
<path d="M13.2673 4.20941C12.9674 3.92372 12.4926 3.93526 12.2069 4.23519C11.9212 4.53512 11.9328 5.00985 12.2327 5.29554L18.484 11.25L3.75 11.25C3.33579 11.25 3 11.5858 3 12C3 12.4142 3.33579 12.75 3.75 12.75L18.4844 12.75L12.2327 18.7049C11.9328 18.9905 11.9212 19.4653 12.2069 19.7652C12.4926 20.0651 12.9674 20.0767 13.2673 19.791L20.6862 12.7243C20.8553 12.5633 20.9552 12.3578 20.9861 12.1443C20.9952 12.0976 21 12.0494 21 12C21 11.9503 20.9952 11.9018 20.9859 11.8548C20.9548 11.6417 20.8549 11.4368 20.6862 11.2761L13.2673 4.20941Z" fill="#2365FA"/>
</svg>
