<svg width="247" height="50" viewBox="0 0 247 50" fill="none" xmlns="http://www.w3.org/2000/svg">
<g clip-path="url(#clip0_902_180)">
<path d="M49.1316 1.5L41.6382 8.57755H49.5076V39.2572L56.5749 32.5553V1.5H49.1316Z" fill="white"/>
<path d="M70.0615 39.7619L77.5048 32.7075C80.3645 30.0106 82.4085 27.5698 83.7371 25.4604C83.9762 25.0752 84.1806 24.6783 84.385 24.2873C85.2354 22.6017 85.6616 20.9527 85.6616 19.3519C85.6607 18.3254 85.5159 17.3041 85.2316 16.3178C84.6531 14.3625 83.4787 12.6095 81.7413 11.078C79.221 8.83185 76.0181 7.69336 72.2386 7.69336C69.1899 7.69336 66.4305 8.49281 63.995 10.1264C61.4882 11.7754 59.6524 14.0215 58.426 16.8687L64.9495 19.9644C65.6129 18.2461 66.5674 16.8822 67.8613 15.8998C69.1086 14.9177 70.6544 14.3909 72.2424 14.4068C73.9451 14.4068 75.3586 14.9 76.5329 15.921C77.7767 16.9419 78.3725 18.1498 78.3725 19.5618C78.3674 19.8303 78.339 20.0977 78.2877 20.3613C78.0486 21.7733 77.1635 23.4069 75.6652 25.2273C74.8829 26.1744 74.0459 27.0749 73.1584 27.9243L59.18 41.226V46.5004H80.3645L87.3816 39.8139V39.7619H70.0615Z" fill="white"/>
<path d="M0 22.6306L11.9209 46.5004L23.8591 22.6306H0Z" fill="white"/>
<path d="M42.7796 33.9442C44.3223 32.6844 45.0936 31.0681 45.0936 29.1456C45.1124 28.2619 44.9314 27.3854 44.5641 26.5813C44.1969 25.7771 43.6528 25.0661 42.9724 24.5011C41.5763 23.2431 39.8216 22.6306 37.7101 22.6306H26.1421V46.5004H38.4023C40.616 46.5004 42.4383 45.8532 43.9038 44.5605C45.3848 43.2121 46.1175 41.5997 46.1175 39.6772C46.1175 37.2114 45.0107 35.2888 42.7796 33.9442Z" fill="white"/>
<path d="M94.6553 48.498C97.6202 48.498 100.024 46.0969 100.024 43.135C100.024 40.173 97.6202 37.7719 94.6553 37.7719C91.6904 37.7719 89.2869 40.173 89.2869 43.135C89.2869 46.0969 91.6904 48.498 94.6553 48.498Z" fill="#2365FA"/>
</g>
<line x1="118.526" y1="-2.18557e-08" x2="118.526" y2="50" stroke="#1A2045"/>
<path d="M140.842 18H137.118V8.55H140.842C142.232 8.55 143.385 9.00267 144.3 9.908C145.233 10.8133 145.7 11.938 145.7 13.282C145.7 14.6167 145.233 15.7367 144.3 16.642C143.385 17.5473 142.232 18 140.842 18ZM140.842 9.6H138.252V16.95H140.842C141.878 16.95 142.755 16.6 143.474 15.9C144.183 15.1907 144.538 14.318 144.538 13.282C144.538 12.414 144.276 11.6487 143.754 10.986C143.231 10.3233 142.559 9.894 141.738 9.698L141.234 9.614C141.178 9.60467 141.047 9.6 140.842 9.6ZM153.362 15.2H147.958C148.023 15.76 148.271 16.2313 148.7 16.614C149.129 16.9873 149.647 17.174 150.254 17.174C151.057 17.174 151.677 16.8707 152.116 16.264L153.11 16.586C152.821 17.0713 152.424 17.454 151.92 17.734C151.416 18.0047 150.861 18.14 150.254 18.14C149.283 18.14 148.481 17.8273 147.846 17.202C147.211 16.5673 146.894 15.7833 146.894 14.85C146.894 13.9167 147.207 13.1373 147.832 12.512C148.467 11.8773 149.241 11.56 150.156 11.56C151.071 11.56 151.836 11.8773 152.452 12.512C153.077 13.1373 153.39 13.9167 153.39 14.85C153.39 14.99 153.381 15.1067 153.362 15.2ZM147.972 14.374H152.326C152.223 13.8327 151.967 13.3893 151.556 13.044C151.155 12.6987 150.679 12.526 150.128 12.526C149.596 12.526 149.129 12.6987 148.728 13.044C148.327 13.3893 148.075 13.8327 147.972 14.374ZM159.02 13.072L158.054 13.254C157.988 13.0207 157.834 12.834 157.592 12.694C157.358 12.5447 157.064 12.47 156.71 12.47C156.364 12.47 156.075 12.5447 155.842 12.694C155.618 12.8433 155.506 13.0393 155.506 13.282C155.506 13.6273 155.73 13.8747 156.178 14.024L157.704 14.57C158.665 14.9153 159.146 15.4893 159.146 16.292C159.146 16.8707 158.926 17.3233 158.488 17.65C158.049 17.9767 157.48 18.14 156.78 18.14C156.108 18.14 155.552 17.9907 155.114 17.692C154.675 17.384 154.414 16.978 154.33 16.474L155.31 16.32C155.366 16.5907 155.529 16.81 155.8 16.978C156.07 17.146 156.402 17.23 156.794 17.23C157.186 17.23 157.508 17.146 157.76 16.978C158.021 16.81 158.152 16.5907 158.152 16.32C158.152 15.956 157.876 15.676 157.326 15.48L155.842 14.962C154.955 14.6353 154.512 14.1033 154.512 13.366C154.512 12.7967 154.717 12.3533 155.128 12.036C155.548 11.7187 156.098 11.56 156.78 11.56C157.386 11.56 157.89 11.7 158.292 11.98C158.693 12.2507 158.936 12.6147 159.02 13.072ZM161.596 18H160.56V11.7H161.596V18ZM160.364 9.642C160.345 9.35267 160.457 9.152 160.7 9.04C160.952 8.91867 161.199 8.91867 161.442 9.04C161.694 9.152 161.806 9.35267 161.778 9.642C161.778 9.84733 161.713 10.02 161.582 10.16C161.451 10.2907 161.283 10.356 161.078 10.356C160.873 10.356 160.7 10.2907 160.56 10.16C160.429 10.0293 160.364 9.85667 160.364 9.642ZM166.121 18.14C165.234 18.14 164.492 17.8273 163.895 17.202C163.307 16.5767 163.013 15.7927 163.013 14.85C163.013 13.926 163.307 13.1467 163.895 12.512C164.502 11.8773 165.244 11.56 166.121 11.56C167.045 11.56 167.806 11.896 168.403 12.568V11.7H169.425V18.112C169.425 19.0267 169.117 19.7827 168.501 20.38C167.894 20.9867 167.134 21.29 166.219 21.29C165.584 21.29 164.996 21.136 164.455 20.828C163.923 20.52 163.536 20.1187 163.293 19.624L164.329 19.302C164.488 19.5913 164.735 19.8247 165.071 20.002C165.416 20.1793 165.785 20.268 166.177 20.268C166.802 20.268 167.334 20.0627 167.773 19.652C168.212 19.2413 168.422 18.728 168.403 18.112V17.132C167.806 17.804 167.045 18.14 166.121 18.14ZM167.759 13.24C167.358 12.8107 166.849 12.596 166.233 12.596C165.617 12.596 165.108 12.8107 164.707 13.24C164.296 13.6787 164.091 14.2153 164.091 14.85C164.091 15.4847 164.296 16.0213 164.707 16.46C165.108 16.8893 165.617 17.104 166.233 17.104C166.849 17.104 167.358 16.8893 167.759 16.46C168.17 16.0213 168.375 15.4847 168.375 14.85C168.375 14.2153 168.17 13.6787 167.759 13.24ZM171.183 18V11.7H172.205V12.75C172.662 11.9567 173.404 11.56 174.431 11.56C175.168 11.56 175.775 11.798 176.251 12.274C176.736 12.75 176.979 13.3473 176.979 14.066V18H175.943V14.346C175.943 13.8327 175.77 13.408 175.425 13.072C175.089 12.7267 174.664 12.554 174.151 12.554C173.6 12.554 173.138 12.7267 172.765 13.072C172.392 13.4173 172.205 13.8467 172.205 14.36V18H171.183ZM184.848 15.2H179.444C179.51 15.76 179.757 16.2313 180.186 16.614C180.616 16.9873 181.134 17.174 181.74 17.174C182.543 17.174 183.164 16.8707 183.602 16.264L184.596 16.586C184.307 17.0713 183.91 17.454 183.406 17.734C182.902 18.0047 182.347 18.14 181.74 18.14C180.77 18.14 179.967 17.8273 179.332 17.202C178.698 16.5673 178.38 15.7833 178.38 14.85C178.38 13.9167 178.693 13.1373 179.318 12.512C179.953 11.8773 180.728 11.56 181.642 11.56C182.557 11.56 183.322 11.8773 183.938 12.512C184.564 13.1373 184.876 13.9167 184.876 14.85C184.876 14.99 184.867 15.1067 184.848 15.2ZM179.458 14.374H183.812C183.71 13.8327 183.453 13.3893 183.042 13.044C182.641 12.6987 182.165 12.526 181.614 12.526C181.082 12.526 180.616 12.6987 180.214 13.044C179.813 13.3893 179.561 13.8327 179.458 14.374ZM187.244 14.444V18H186.222V11.7H187.244V12.764C187.72 11.9613 188.462 11.56 189.47 11.56H189.652V12.708C189.493 12.6613 189.339 12.638 189.19 12.638C188.639 12.638 188.177 12.8107 187.804 13.156C187.431 13.5013 187.244 13.9307 187.244 14.444ZM141.262 36H140.366L136.278 26.55H137.468L140.814 34.362L144.174 26.55H145.364L141.262 36ZM147.514 36H146.492V25.85H147.514V36ZM152.053 29.56C152.977 29.56 153.737 29.896 154.335 30.568V29.7H155.371V36H154.335V35.132C153.737 35.804 152.977 36.14 152.053 36.14C151.166 36.14 150.424 35.8273 149.827 35.202C149.239 34.5767 148.945 33.7927 148.945 32.85C148.945 31.926 149.239 31.1467 149.827 30.512C150.433 29.8773 151.175 29.56 152.053 29.56ZM153.691 31.24C153.289 30.8107 152.781 30.596 152.165 30.596C151.549 30.596 151.04 30.8107 150.639 31.24C150.228 31.6787 150.023 32.2153 150.023 32.85C150.023 33.4847 150.228 34.0213 150.639 34.46C151.04 34.8893 151.549 35.104 152.165 35.104C152.781 35.104 153.289 34.8893 153.691 34.46C154.101 34.0213 154.307 33.4847 154.307 32.85C154.307 32.2153 154.101 31.6787 153.691 31.24ZM159.887 29.56C160.811 29.56 161.571 29.896 162.169 30.568V25.85H163.191V36H162.169V35.132C161.571 35.804 160.811 36.14 159.887 36.14C159 36.14 158.258 35.8273 157.661 35.202C157.073 34.5767 156.779 33.7927 156.779 32.85C156.779 31.926 157.073 31.1467 157.661 30.512C158.267 29.8773 159.009 29.56 159.887 29.56ZM161.525 31.24C161.123 30.8107 160.615 30.596 159.999 30.596C159.383 30.596 158.874 30.8107 158.473 31.24C158.062 31.6787 157.857 32.2153 157.857 32.85C157.857 33.4847 158.062 34.0213 158.473 34.46C158.874 34.8893 159.383 35.104 159.999 35.104C160.615 35.104 161.123 34.8893 161.525 34.46C161.935 34.0213 162.141 33.4847 162.141 32.85C162.141 32.2153 161.935 31.6787 161.525 31.24ZM173.582 36H168.85V26.55H173.316C174.081 26.55 174.716 26.788 175.22 27.264C175.733 27.7213 175.99 28.3 175.99 29C175.99 29.8773 175.626 30.5447 174.898 31.002C175.383 31.2167 175.761 31.534 176.032 31.954C176.312 32.3647 176.452 32.8313 176.452 33.354C176.452 34.11 176.177 34.74 175.626 35.244C175.085 35.748 174.403 36 173.582 36ZM173.582 31.618H169.984V34.95H173.582C174.067 34.95 174.469 34.7913 174.786 34.474C175.113 34.1473 175.276 33.7507 175.276 33.284C175.276 32.808 175.113 32.4113 174.786 32.094C174.469 31.7767 174.067 31.618 173.582 31.618ZM173.316 27.6H169.984V30.554H173.316C173.745 30.554 174.1 30.414 174.38 30.134C174.669 29.854 174.814 29.504 174.814 29.084C174.814 28.664 174.669 28.314 174.38 28.034C174.1 27.7447 173.745 27.6 173.316 27.6ZM180.85 36.14C179.907 36.14 179.123 35.8273 178.498 35.202C177.873 34.5767 177.56 33.7927 177.56 32.85C177.56 31.9073 177.873 31.1233 178.498 30.498C179.123 29.8727 179.907 29.56 180.85 29.56C181.783 29.56 182.563 29.8727 183.188 30.498C183.823 31.1327 184.14 31.9167 184.14 32.85C184.14 33.7833 183.823 34.5673 183.188 35.202C182.563 35.8273 181.783 36.14 180.85 36.14ZM180.85 30.596C180.215 30.596 179.688 30.8107 179.268 31.24C178.848 31.6693 178.638 32.206 178.638 32.85C178.638 33.494 178.848 34.0307 179.268 34.46C179.688 34.8893 180.215 35.104 180.85 35.104C181.485 35.104 182.012 34.8893 182.432 34.46C182.852 34.0307 183.062 33.494 183.062 32.85C183.062 32.206 182.852 31.6693 182.432 31.24C182.012 30.8107 181.485 30.596 180.85 30.596ZM186.588 32.444V36H185.566V29.7H186.588V30.764C187.064 29.9613 187.806 29.56 188.814 29.56H188.996V30.708C188.837 30.6613 188.683 30.638 188.534 30.638C187.983 30.638 187.521 30.8107 187.148 31.156C186.775 31.5013 186.588 31.9307 186.588 32.444ZM189.46 30.61V29.7H190.482V28.398H191.504V29.7H193.296V30.61H191.504V34.012C191.504 34.3013 191.588 34.5393 191.756 34.726C191.933 34.9127 192.153 35.006 192.414 35.006H193.296V36H192.344C191.812 36 191.369 35.8227 191.014 35.468C190.659 35.0947 190.482 34.6513 190.482 34.138V30.61H189.46ZM194.63 36V29.7H195.652V30.75C196.11 29.9567 196.852 29.56 197.878 29.56C198.616 29.56 199.222 29.798 199.698 30.274C200.184 30.75 200.426 31.3473 200.426 32.066V36H199.39V32.346C199.39 31.8327 199.218 31.408 198.872 31.072C198.536 30.7267 198.112 30.554 197.598 30.554C197.048 30.554 196.586 30.7267 196.212 31.072C195.839 31.4173 195.652 31.8467 195.652 32.36V36H194.63ZM205.117 36.14C204.175 36.14 203.391 35.8273 202.765 35.202C202.14 34.5767 201.827 33.7927 201.827 32.85C201.827 31.9073 202.14 31.1233 202.765 30.498C203.391 29.8727 204.175 29.56 205.117 29.56C206.051 29.56 206.83 29.8727 207.455 30.498C208.09 31.1327 208.407 31.9167 208.407 32.85C208.407 33.7833 208.09 34.5673 207.455 35.202C206.83 35.8273 206.051 36.14 205.117 36.14ZM205.117 30.596C204.483 30.596 203.955 30.8107 203.535 31.24C203.115 31.6693 202.905 32.206 202.905 32.85C202.905 33.494 203.115 34.0307 203.535 34.46C203.955 34.8893 204.483 35.104 205.117 35.104C205.752 35.104 206.279 34.8893 206.699 34.46C207.119 34.0307 207.329 33.494 207.329 32.85C207.329 32.206 207.119 31.6693 206.699 31.24C206.279 30.8107 205.752 30.596 205.117 30.596ZM211.589 36L208.887 29.7H209.951L212.065 34.684L214.179 29.7H215.243L212.541 36H211.589ZM220.516 31.072L219.55 31.254C219.485 31.0207 219.331 30.834 219.088 30.694C218.855 30.5447 218.561 30.47 218.206 30.47C217.861 30.47 217.571 30.5447 217.338 30.694C217.114 30.8433 217.002 31.0393 217.002 31.282C217.002 31.6273 217.226 31.8747 217.674 32.024L219.2 32.57C220.161 32.9153 220.642 33.4893 220.642 34.292C220.642 34.8707 220.423 35.3233 219.984 35.65C219.545 35.9767 218.976 36.14 218.276 36.14C217.604 36.14 217.049 35.9907 216.61 35.692C216.171 35.384 215.91 34.978 215.826 34.474L216.806 34.32C216.862 34.5907 217.025 34.81 217.296 34.978C217.567 35.146 217.898 35.23 218.29 35.23C218.682 35.23 219.004 35.146 219.256 34.978C219.517 34.81 219.648 34.5907 219.648 34.32C219.648 33.956 219.373 33.676 218.822 33.48L217.338 32.962C216.451 32.6353 216.008 32.1033 216.008 31.366C216.008 30.7967 216.213 30.3533 216.624 30.036C217.044 29.7187 217.595 29.56 218.276 29.56C218.883 29.56 219.387 29.7 219.788 29.98C220.189 30.2507 220.432 30.6147 220.516 31.072ZM222.056 36V25.85H223.078V36H222.056ZM227.264 36H225.976L223.148 32.738L225.724 29.7H226.998L224.422 32.738L227.264 36ZM229.689 36.994L230.165 35.832L227.659 29.7H228.723L230.683 34.586L232.713 29.7H233.777L230.571 37.344C230.309 37.9693 229.987 38.4267 229.605 38.716C229.231 39.0053 228.76 39.15 228.191 39.15H227.953V38.156H228.191C228.863 38.156 229.362 37.7687 229.689 36.994ZM235.875 36H234.839V29.7H235.875V36ZM234.643 27.642C234.625 27.3527 234.737 27.152 234.979 27.04C235.231 26.9187 235.479 26.9187 235.721 27.04C235.973 27.152 236.085 27.3527 236.057 27.642C236.057 27.8473 235.992 28.02 235.861 28.16C235.731 28.2907 235.563 28.356 235.357 28.356C235.152 28.356 234.979 28.2907 234.839 28.16C234.709 28.0293 234.643 27.8567 234.643 27.642Z" fill="white"/>
<defs>
<clipPath id="clip0_902_180">
<rect width="100.026" height="47" fill="white" transform="translate(0 1.5)"/>
</clipPath>
</defs>
</svg>
